<?xml version="1.0" standalone="no"?><!-- Generator: Gravit.io --><svg xmlns="http://www.w3.org/2000/svg" xmlns:xlink="http://www.w3.org/1999/xlink" style="isolation:isolate" viewBox="548.5 685.4999999999999 365.0000000000002 117.00000000000023" width="365.0000000000002" height="117.00000000000023"><defs><filter id="btNmW3WiuSB7uM5rn6qwU6K8C9OWSR0K" x="-200%" y="-200%" width="400%" height="400%"><feOffset xmlns="http://www.w3.org/2000/svg" in="SourceAlpha" result="offOut" dx="5" dy="5"/><feGaussianBlur xmlns="http://www.w3.org/2000/svg" in="offOut" result="blurOut" stdDeviation="7.5"/><feComponentTransfer xmlns="http://www.w3.org/2000/svg" in="blurOut" result="opacOut"><feFuncA xmlns="http://www.w3.org/2000/svg" type="table" tableValues="0 0.5"/></feComponentTransfer><feBlend xmlns="http://www.w3.org/2000/svg" in="SourceGraphic" in2="opacOut" mode="normal"/></filter></defs><g filter="url(#btNmW3WiuSB7uM5rn6qwU6K8C9OWSR0K)"><path d="M 583.5 703.5000000000001 L 877.5 703.4999999999999 C 882.46723518 703.5 886.5 707.53276482 886.5 712.5 L 886.5 766.4999999999999 C 886.5 771.4672351799999 882.46723518 775.4999999999999 877.5 775.5 L 583.5 775.5 C 578.53276482 775.5 574.4999999999999 771.46723518 574.5 766.5 L 574.5 712.5 C 574.5 707.5327648200001 578.53276482 703.5000000000002 583.5 703.5000000000001 Z" style="fill:none;stroke:#FFFFFF;stroke-width:5;stroke-linecap:square;stroke-miterlimit:3;"/></g><path d=" M 732.3203125 737.80810546875 Q 731.3359375 737.80810546875 730.45703125 737.42138671875 Q 729.578125 737.03466796875 728.921875 736.39013671875 Q 728.265625 735.74560546875 727.890625 734.86669921875 Q 727.515625 733.98779296875 727.515625 733.00341796875 L 727.515625 723.39404296875 Q 727.515625 722.40966796875 727.890625 721.53076171875 Q 728.265625 720.65185546875 728.921875 720.00732421875 Q 729.578125 719.36279296875 730.45703125 718.97607421875 Q 731.3359375 718.58935546875 732.3203125 718.58935546875 L 748.6328125 718.58935546875 Q 749.6171875 718.58935546875 750.49609375 718.97607421875 Q 751.375 719.36279296875 752.03125 720.00732421875 Q 752.6875 720.65185546875 753.0625 721.53076171875 Q 753.4375 722.40966796875 753.4375 723.39404296875 L 753.4375 727.72998046875 L 748.6328125 727.72998046875 L 748.6328125 723.39404296875 L 732.3203125 723.39404296875 L 732.3203125 733.00341796875 L 748.6328125 733.00341796875 Q 749.6171875 733.00341796875 750.49609375 733.37841796875 Q 751.375 733.75341796875 752.03125 734.40966796875 Q 752.6875 735.06591796875 753.0625 735.94482421875 Q 753.4375 736.82373046875 753.4375 737.80810546875 L 753.4375 747.39404296875 Q 753.4375 748.37841796875 753.0625 749.25732421875 Q 752.6875 750.13623046875 752.03125 750.79248046875 Q 751.375 751.44873046875 750.49609375 751.82373046875 Q 749.6171875 752.19873046875 748.6328125 752.19873046875 L 731.8515625 752.19873046875 Q 730.8671875 752.19873046875 729.98828125 751.82373046875 Q 729.109375 751.44873046875 728.453125 750.79248046875 Q 727.796875 750.13623046875 727.421875 749.25732421875 Q 727.046875 748.37841796875 727.046875 747.39404296875 L 727.046875 743.08154296875 L 731.8515625 743.08154296875 L 731.8515625 747.39404296875 L 748.6328125 747.39404296875 L 748.6328125 737.80810546875 L 732.3203125 737.80810546875 Z  M 756.203125 718.58935546875 L 783.0859375 718.58935546875 L 783.0859375 723.39404296875 L 772.046875 723.39404296875 L 772.046875 752.19873046875 L 767.2421875 752.19873046875 L 767.2421875 723.39404296875 L 756.203125 723.39404296875 L 756.203125 718.58935546875 Z  M 800.734375 718.58935546875 L 813.6953125 752.19873046875 L 808.890625 752.19873046875 L 805.9140625 744.46435546875 L 790.75 744.46435546875 L 787.7734375 752.19873046875 L 782.96875 752.19873046875 L 795.9296875 718.58935546875 L 800.734375 718.58935546875 Z  M 792.578125 739.65966796875 L 804.0625 739.65966796875 L 798.34375 724.84716796875 L 792.578125 739.65966796875 Z  M 843.015625 730.58935546875 Q 843.015625 737.62060546875 837.015625 738.60498046875 L 843.34375 752.19873046875 L 838.0234375 752.19873046875 L 831.7890625 738.76904296875 L 821.265625 738.76904296875 L 821.265625 752.19873046875 L 816.4609375 752.19873046875 L 816.4609375 718.58935546875 L 834.859375 718.58935546875 Q 843.015625 718.58935546875 843.015625 726.76904296875 L 843.015625 730.58935546875 Z  M 821.265625 733.96435546875 L 834.6015625 733.96435546875 Q 836.5234375 733.96435546875 837.3671875 733.12060546875 Q 838.2109375 732.27685546875 838.2109375 730.35498046875 L 838.2109375 727.00341796875 Q 838.2109375 725.08154296875 837.3671875 724.23779296875 Q 836.5234375 723.39404296875 834.6015625 723.39404296875 L 821.265625 723.39404296875 L 821.265625 733.96435546875 Z  M 845.1484375 718.58935546875 L 872.03125 718.58935546875 L 872.03125 723.39404296875 L 860.9921875 723.39404296875 L 860.9921875 752.19873046875 L 856.1875 752.19873046875 L 856.1875 723.39404296875 L 845.1484375 723.39404296875 L 845.1484375 718.58935546875 Z  M 591.828125 752.19873046875 L 591.828125 718.58935546875 L 610.2265625 718.58935546875 Q 618.3828125 718.58935546875 618.3828125 726.76904296875 L 618.3828125 731.55029296875 Q 618.3828125 739.72998046875 610.2265625 739.72998046875 L 596.6328125 739.72998046875 L 596.6328125 752.19873046875 L 591.828125 752.19873046875 Z  M 596.6328125 734.92529296875 L 609.96875 734.92529296875 Q 611.890625 734.92529296875 612.734375 734.08154296875 Q 613.578125 733.23779296875 613.578125 731.31591796875 L 613.578125 727.00341796875 Q 613.578125 725.08154296875 612.734375 724.23779296875 Q 611.890625 723.39404296875 609.96875 723.39404296875 L 596.6328125 723.39404296875 L 596.6328125 734.92529296875 Z  M 626.2109375 731.85498046875 L 626.2109375 752.19873046875 L 621.6171875 752.19873046875 L 621.6171875 727.23779296875 L 626.2109375 727.23779296875 L 626.2109375 731.64404296875 Q 626.2578125 730.72998046875 626.6328125 729.92138671875 Q 627.0078125 729.11279296875 627.62890625 728.51513671875 Q 628.25 727.91748046875 629.0703125 727.57763671875 Q 629.890625 727.23779296875 630.828125 727.23779296875 L 635.7265625 727.23779296875 Q 636.6875 727.23779296875 637.51953125 727.60107421875 Q 638.3515625 727.96435546875 638.984375 728.58544921875 Q 639.6171875 729.20654296875 639.98046875 730.05029296875 Q 640.34375 730.89404296875 640.34375 731.85498046875 L 640.34375 736.07373046875 L 635.7265625 736.07373046875 L 635.7265625 731.85498046875 L 626.2109375 731.85498046875 Z  M 664.203125 742.07373046875 L 647.6796875 742.07373046875 L 647.6796875 747.58154296875 L 664.203125 747.58154296875 L 664.203125 752.19873046875 L 647.6796875 752.19873046875 Q 646.7421875 752.19873046875 645.8984375 751.83544921875 Q 645.0546875 751.47216796875 644.43359375 750.85107421875 Q 643.8125 750.22998046875 643.44921875 749.38623046875 Q 643.0859375 748.54248046875 643.0859375 747.58154296875 L 643.0859375 731.85498046875 Q 643.0859375 730.89404296875 643.44921875 730.05029296875 Q 643.8125 729.20654296875 644.43359375 728.58544921875 Q 645.0546875 727.96435546875 645.8984375 727.60107421875 Q 646.7421875 727.23779296875 647.6796875 727.23779296875 L 659.5859375 727.23779296875 Q 660.546875 727.23779296875 661.390625 727.60107421875 Q 662.234375 727.96435546875 662.85546875 728.58544921875 Q 663.4765625 729.20654296875 663.83984375 730.05029296875 Q 664.203125 730.89404296875 664.203125 731.85498046875 L 664.203125 742.07373046875 Z  M 647.6796875 731.85498046875 L 647.6796875 737.45654296875 L 659.5859375 737.45654296875 L 659.5859375 731.85498046875 L 647.6796875 731.85498046875 Z  M 683.9609375 747.58154296875 L 683.9609375 741.79248046875 L 673.015625 741.79248046875 Q 672.0546875 741.79248046875 671.2109375 741.42919921875 Q 670.3671875 741.06591796875 669.74609375 740.44482421875 Q 669.125 739.82373046875 668.76171875 738.97998046875 Q 668.3984375 738.13623046875 668.3984375 737.17529296875 L 668.3984375 731.85498046875 Q 668.3984375 730.89404296875 668.76171875 730.05029296875 Q 669.125 729.20654296875 669.74609375 728.58544921875 Q 670.3671875 727.96435546875 671.2109375 727.60107421875 Q 672.0546875 727.23779296875 673.015625 727.23779296875 L 687.6171875 727.23779296875 L 687.6171875 731.85498046875 L 673.015625 731.85498046875 L 673.015625 737.17529296875 L 683.9609375 737.17529296875 Q 684.921875 737.17529296875 685.75390625 737.53857421875 Q 686.5859375 737.90185546875 687.21875 738.52294921875 Q 687.8515625 739.14404296875 688.21484375 739.98779296875 Q 688.578125 740.83154296875 688.578125 741.79248046875 L 688.578125 747.58154296875 Q 688.578125 748.54248046875 688.21484375 749.38623046875 Q 687.8515625 750.22998046875 687.21875 750.85107421875 Q 686.5859375 751.47216796875 685.75390625 751.83544921875 Q 684.921875 752.19873046875 683.9609375 752.19873046875 L 668.3984375 752.19873046875 L 668.3984375 747.58154296875 L 683.9609375 747.58154296875 Z  M 707.84375 747.58154296875 L 707.84375 741.79248046875 L 696.8984375 741.79248046875 Q 695.9375 741.79248046875 695.09375 741.42919921875 Q 694.25 741.06591796875 693.62890625 740.44482421875 Q 693.0078125 739.82373046875 692.64453125 738.97998046875 Q 692.28125 738.13623046875 692.28125 737.17529296875 L 692.28125 731.85498046875 Q 692.28125 730.89404296875 692.64453125 730.05029296875 Q 693.0078125 729.20654296875 693.62890625 728.58544921875 Q 694.25 727.96435546875 695.09375 727.60107421875 Q 695.9375 727.23779296875 696.8984375 727.23779296875 L 711.5 727.23779296875 L 711.5 731.85498046875 L 696.8984375 731.85498046875 L 696.8984375 737.17529296875 L 707.84375 737.17529296875 Q 708.8046875 737.17529296875 709.63671875 737.53857421875 Q 710.46875 737.90185546875 711.1015625 738.52294921875 Q 711.734375 739.14404296875 712.09765625 739.98779296875 Q 712.4609375 740.83154296875 712.4609375 741.79248046875 L 712.4609375 747.58154296875 Q 712.4609375 748.54248046875 712.09765625 749.38623046875 Q 711.734375 750.22998046875 711.1015625 750.85107421875 Q 710.46875 751.47216796875 709.63671875 751.83544921875 Q 708.8046875 752.19873046875 707.84375 752.19873046875 L 692.28125 752.19873046875 L 692.28125 747.58154296875 L 707.84375 747.58154296875 Z " fill-rule="evenodd" fill="rgb(255,255,255)" vector-effect="non-scaling-stroke" stroke-width="1" stroke="rgb(51,0,255)" stroke-opacity="0.8" stroke-linejoin="miter" stroke-linecap="square" stroke-miterlimit="3"/></svg>